<svg width="725" height="725" viewBox="0 0 725 725" fill="none" xmlns="http://www.w3.org/2000/svg">
<path d="M239.546 594.273L239.676 600.323L240.402 600.703L242.86 596.008L245.89 597.594L239.379 610.033L234.294 607.371C233.313 606.858 232.57 606.251 232.064 605.549C231.546 604.842 231.274 604.097 231.247 603.316C231.213 602.546 231.388 601.795 231.772 601.062C232.204 600.235 232.827 599.621 233.64 599.218C234.441 598.81 235.367 598.707 236.419 598.912L236.126 592.483L239.546 594.273ZM239.28 602.847L237.402 601.864C236.846 601.574 236.362 601.493 235.948 601.623C235.522 601.746 235.179 602.056 234.92 602.552C234.672 603.024 234.619 603.471 234.761 603.891C234.89 604.305 235.233 604.657 235.788 604.948L237.666 605.931L239.28 602.847Z" fill="#17313B"/>
<path d="M220.443 596.41L221.925 593.987L218.017 591.599L219.394 589.346L223.301 591.735L224.908 589.107L220.488 586.405L221.917 584.067L229.255 588.552L221.933 600.532L214.595 596.047L216.024 593.709L220.443 596.41Z" fill="#17313B"/>
<path d="M200.243 586.33L201.812 584.083L206.502 587.357L208.196 584.93L204.687 582.48L206.209 580.299L209.719 582.749L212.97 578.091L215.774 580.048L207.738 591.561L200.243 586.33Z" fill="#17313B"/>
<path d="M197.235 566.289L196.198 572.251L196.837 572.764L200.153 568.629L202.821 570.768L194.039 581.722L189.56 578.131C188.697 577.439 188.084 576.7 187.723 575.915C187.351 575.121 187.227 574.338 187.351 573.566C187.466 572.804 187.782 572.1 188.299 571.455C188.883 570.727 189.612 570.244 190.487 570.005C191.352 569.758 192.28 569.836 193.273 570.239L194.223 563.875L197.235 566.289ZM195.324 574.652L193.67 573.326C193.181 572.934 192.721 572.761 192.29 572.809C191.848 572.848 191.452 573.086 191.102 573.523C190.768 573.939 190.63 574.367 190.688 574.806C190.736 575.237 191.004 575.649 191.493 576.041L193.147 577.367L195.324 574.652Z" fill="#17313B"/>
<path d="M178.079 564.712L179.998 562.619L176.623 559.523L178.408 557.577L181.783 560.673L183.865 558.404L180.047 554.902L181.9 552.883L188.237 558.696L178.747 569.043L172.409 563.23L174.261 561.21L178.079 564.712Z" fill="#17313B"/>
<path d="M173.22 544.007C173.931 544.748 174.447 545.528 174.769 546.346C175.091 547.164 175.186 547.977 175.056 548.785C174.916 549.583 174.524 550.311 173.878 550.966L171.359 548.338C171.698 547.94 171.862 547.533 171.852 547.118C171.833 546.712 171.652 546.331 171.311 545.975C170.96 545.609 170.602 545.398 170.235 545.343C169.859 545.298 169.522 545.418 169.223 545.704C168.973 545.943 168.849 546.228 168.851 546.559C168.845 546.879 168.908 547.215 169.042 547.567C169.167 547.909 169.378 548.371 169.677 548.953C170.102 549.801 170.412 550.529 170.606 551.137C170.801 551.744 170.844 552.387 170.735 553.063C170.626 553.74 170.254 554.383 169.619 554.991C168.675 555.895 167.611 556.259 166.427 556.083C165.233 555.916 164.11 555.284 163.058 554.186C161.988 553.069 161.395 551.911 161.28 550.711C161.154 549.52 161.545 548.444 162.452 547.483L165.012 550.154C164.703 550.487 164.563 550.852 164.592 551.249C164.612 551.654 164.788 552.031 165.12 552.377C165.406 552.676 165.718 552.838 166.057 552.864C166.386 552.9 166.7 552.774 166.999 552.488C167.326 552.175 167.434 551.776 167.321 551.293C167.209 550.809 166.945 550.139 166.53 549.281C166.124 548.415 165.829 547.682 165.643 547.084C165.449 546.476 165.401 545.839 165.5 545.171C165.599 544.504 165.952 543.88 166.559 543.298C167.136 542.745 167.804 542.392 168.562 542.238C169.31 542.075 170.092 542.139 170.906 542.43C171.72 542.721 172.492 543.246 173.22 544.007Z" fill="#17313B"/>
<path d="M145.829 534.261L156.641 525.303L158.823 527.937L154.372 531.625L157.766 535.721L162.217 532.034L164.399 534.667L153.587 543.625L151.405 540.991L155.64 537.482L152.246 533.385L148.011 536.894L145.829 534.261Z" fill="#17313B"/>
<path d="M138.607 524.64L149.927 516.334L151.95 519.092L140.63 527.398L138.607 524.64Z" fill="#17313B"/>
<path d="M138.734 499.668L140.586 502.543L136.404 512.042L143.684 507.352L145.536 510.227L133.733 517.83L131.881 514.955L136.097 505.435L128.783 510.147L126.931 507.272L138.734 499.668Z" fill="#17313B"/>
<path d="M121.589 488.808C121.298 489.252 121.16 489.742 121.175 490.278C121.173 490.809 121.323 491.357 121.625 491.921C122.149 492.896 122.891 493.504 123.853 493.744C124.802 493.991 125.812 493.828 126.881 493.254C128.02 492.642 128.749 491.858 129.068 490.9C129.368 489.937 129.228 488.915 128.648 487.834C128.251 487.094 127.728 486.572 127.081 486.269C126.428 485.954 125.686 485.868 124.855 486.011L126.907 489.835L124.687 491.027L121.168 484.471L123.97 482.967C124.842 482.787 125.746 482.794 126.682 482.987C127.612 483.169 128.497 483.564 129.338 484.172C130.179 484.78 130.877 485.601 131.432 486.635C132.087 487.857 132.409 489.091 132.398 490.338C132.368 491.58 132.022 492.726 131.361 493.778C130.693 494.817 129.748 495.665 128.526 496.32C127.304 496.976 126.076 497.295 124.841 497.277C123.587 497.253 122.441 496.908 121.401 496.24C120.35 495.578 119.497 494.637 118.841 493.415C118.047 491.935 117.737 490.497 117.911 489.102C118.079 487.695 118.709 486.487 119.802 485.477L121.589 488.808Z" fill="#17313B"/>
<path d="M98.4026 443.798L100.006 442.112L101.573 444.195L101.626 441.596L104.01 442.096L102.941 444.536L105.266 443.27L105.976 445.5L103.353 445.832L105.65 447.178L103.969 449.015L102.403 446.932L102.381 449.5L100.072 449.039L101.099 446.529L98.7411 447.826L98.0186 445.558L100.692 445.252L98.4026 443.798Z" fill="#17313B"/>
<path d="M103.927 406.459C104.099 407.471 104.088 408.406 103.896 409.264C103.703 410.121 103.326 410.848 102.764 411.444C102.2 412.026 101.467 412.407 100.564 412.587L99.9559 408.999C100.46 408.859 100.824 408.615 101.049 408.266C101.26 407.919 101.325 407.502 101.243 407.016C101.158 406.516 100.979 406.141 100.707 405.889C100.421 405.64 100.074 405.55 99.6669 405.619C99.3252 405.677 99.0626 405.844 98.8792 406.118C98.6936 406.379 98.5575 406.693 98.4709 407.06C98.382 407.413 98.2979 407.914 98.2186 408.563C98.0941 409.504 97.9418 410.28 97.7615 410.892C97.5813 411.504 97.2563 412.06 96.7864 412.559C96.3165 413.057 95.6478 413.38 94.7802 413.528C93.4919 413.746 92.4071 413.45 91.5258 412.639C90.6314 411.831 90.0572 410.677 89.8031 409.178C89.5445 407.653 89.7042 406.362 90.2821 405.304C90.8469 404.248 91.7744 403.577 93.0647 403.29L93.6832 406.938C93.2407 407.04 92.9202 407.264 92.7217 407.608C92.5101 407.955 92.4444 408.365 92.5246 408.839C92.5937 409.246 92.7611 409.556 93.027 409.768C93.2797 409.982 93.6098 410.054 94.0173 409.985C94.4642 409.909 94.7769 409.64 94.9554 409.177C95.1338 408.714 95.2919 408.011 95.4295 407.068C95.5803 406.123 95.7469 405.351 95.9294 404.752C96.1096 404.14 96.428 403.586 96.8848 403.089C97.3415 402.592 97.984 402.274 98.8122 402.133C99.6009 401.999 100.352 402.082 101.065 402.38C101.776 402.665 102.387 403.157 102.897 403.855C103.408 404.552 103.751 405.42 103.927 406.459Z" fill="#17313B"/>
<path d="M91.3537 384.07C92.163 383.99 92.9245 384.101 93.6383 384.405C94.3388 384.71 94.9331 385.227 95.4213 385.955C95.9095 386.684 96.2106 387.618 96.3247 388.759L96.5355 390.869L101.551 390.368L101.891 393.771L87.9203 395.167L87.3693 389.654C87.2579 388.54 87.3561 387.579 87.664 386.771C87.9718 385.963 88.4448 385.333 89.083 384.88C89.7212 384.428 90.4781 384.158 91.3537 384.07ZM93.644 389.289C93.579 388.638 93.3781 388.169 93.0411 387.881C92.7041 387.594 92.257 387.477 91.6998 387.533C91.1426 387.589 90.7273 387.791 90.454 388.14C90.1807 388.489 90.0765 388.988 90.1415 389.639L90.3265 391.489L93.829 391.139L93.644 389.289Z" fill="#17313B"/>
<path d="M97.6183 367.241L97.7623 372.479L100.264 373.25L100.363 376.829L86.1885 372.137L86.0797 368.178L99.9748 362.714L100.074 366.333L97.6183 367.241ZM95.0034 368.193L89.9132 370.074L95.0985 371.652L95.0034 368.193Z" fill="#17313B"/>
<path d="M100.416 348.833L94.9857 351.503L94.9476 352.322L100.242 352.568L100.083 355.985L86.0579 355.331L86.325 349.598C86.3765 348.492 86.6134 347.562 87.0356 346.808C87.4584 346.04 88.0185 345.479 88.7158 345.124C89.3997 344.769 90.1545 344.61 90.9803 344.649C91.9126 344.692 92.7327 344.998 93.4404 345.564C94.1487 346.118 94.6322 346.915 94.8907 347.954L100.595 344.977L100.416 348.833ZM92.5302 352.209L92.6288 350.092C92.658 349.466 92.5266 348.992 92.2345 348.672C91.943 348.338 91.5176 348.158 90.9582 348.132C90.4255 348.107 89.9985 348.247 89.6773 348.553C89.3567 348.845 89.1818 349.304 89.1526 349.93L89.054 352.047L92.5302 352.209Z" fill="#17313B"/>
<path d="M102.194 329.008L95.4789 332.961L101.635 333.695L101.23 337.091L87.2891 335.429L87.694 332.033L93.8107 332.762L88.2482 327.385L88.7242 323.394L94.9116 329.61L102.689 324.858L102.194 329.008Z" fill="#17313B"/>
<path d="M101.801 314.485L102.617 310.08L105.213 310.561L103.774 318.329L89.9687 315.771L90.5918 312.408L101.801 314.485Z" fill="#17313B"/>
<path d="M93.852 297.109L107.514 300.345L106.726 303.673L93.0637 300.437L93.852 297.109Z" fill="#17313B"/>
<path d="M112.951 281.019L111.962 284.293L102.018 287.265L110.308 289.769L109.319 293.043L95.8789 288.984L96.8678 285.71L106.85 282.749L98.5216 280.234L99.5105 276.96L112.951 281.019Z" fill="#17313B"/>
<path d="M110.107 260.924C109.58 260.99 109.118 261.203 108.719 261.562C108.313 261.905 107.994 262.374 107.76 262.97C107.357 264 107.375 264.96 107.815 265.848C108.243 266.731 109.021 267.394 110.151 267.836C111.356 268.307 112.426 268.354 113.361 267.975C114.289 267.58 114.977 266.811 115.424 265.668C115.73 264.886 115.789 264.15 115.601 263.461C115.417 262.759 115.001 262.138 114.354 261.598L112.772 265.64L110.425 264.721L113.137 257.793L116.098 258.952C116.8 259.499 117.381 260.192 117.841 261.03C118.305 261.856 118.578 262.786 118.66 263.821C118.742 264.855 118.569 265.918 118.141 267.011C117.636 268.302 116.905 269.348 115.948 270.147C114.983 270.929 113.886 271.409 112.657 271.587C111.432 271.752 110.174 271.582 108.883 271.076C107.592 270.571 106.553 269.842 105.766 268.89C104.971 267.92 104.491 266.823 104.326 265.599C104.148 264.37 104.312 263.109 104.818 261.818C105.43 260.254 106.324 259.086 107.499 258.314C108.679 257.53 110.008 257.227 111.485 257.404L110.107 260.924Z" fill="#17313B"/>
<path d="M123.89 223.049L126.217 223.089L125.743 225.652L127.693 223.933L128.938 226.026L126.417 226.889L128.923 227.745L127.762 229.777L125.743 228.07L126.306 230.672L123.815 230.677L124.289 228.115L122.384 229.836L121.161 227.824L123.704 226.882L121.153 226.023L122.334 223.957L124.368 225.718L123.89 223.049Z" fill="#17313B"/>
<path d="M146.362 189.983L148.534 191.654L145.045 196.187L147.391 197.992L150.001 194.6L152.11 196.222L149.499 199.614L154.001 203.078L151.915 205.789L140.788 197.226L146.362 189.983Z" fill="#17313B"/>
<path d="M153.389 181.586L164.062 190.707L161.841 193.307L151.167 184.186L153.389 181.586Z" fill="#17313B"/>
<path d="M169.522 180.494L173.684 176.117L175.713 178.047L168.877 185.235L166.993 183.443L164.867 173.141L160.732 177.489L158.703 175.56L165.539 168.371L167.423 170.163L169.522 180.494Z" fill="#17313B"/>
<path d="M181.658 168.429L186.094 164.33L187.994 166.386L180.709 173.119L178.944 171.209L177.487 160.791L173.08 164.863L171.18 162.807L178.466 156.075L180.23 157.984L181.658 168.429Z" fill="#17313B"/>
<path d="M187.18 148.673L196.147 159.476L193.516 161.66L184.548 150.857L187.18 148.673Z" fill="#17313B"/>
<path d="M212.116 147.308L209.357 149.329L199.626 145.721L204.742 152.708L201.983 154.729L193.688 143.401L196.447 141.38L206.202 145.02L201.062 138.001L203.821 135.98L212.116 147.308Z" fill="#17313B"/>
<path d="M221.932 129.544C221.471 129.28 220.974 129.171 220.439 129.219C219.909 129.248 219.372 129.431 218.827 129.767C217.885 130.347 217.322 131.125 217.139 132.099C216.95 133.061 217.173 134.059 217.81 135.092C218.488 136.193 219.315 136.874 220.29 137.134C221.269 137.376 222.281 137.176 223.325 136.532C224.041 136.091 224.53 135.539 224.794 134.875C225.07 134.204 225.111 133.458 224.919 132.637L221.224 134.914L219.902 132.769L226.235 128.865L227.904 131.572C228.136 132.432 228.183 133.334 228.046 134.281C227.92 135.22 227.579 136.127 227.022 137.003C226.465 137.878 225.688 138.624 224.689 139.239C223.508 139.967 222.295 140.362 221.05 140.425C219.808 140.47 218.643 140.193 217.555 139.596C216.477 138.991 215.575 138.098 214.847 136.918C214.12 135.737 213.728 134.53 213.672 133.296C213.62 132.043 213.897 130.878 214.502 129.801C215.099 128.712 215.988 127.804 217.169 127.076C218.599 126.195 220.015 125.8 221.418 125.89C222.833 125.974 224.076 126.531 225.15 127.561L221.932 129.544Z" fill="#17313B"/>
<path d="M246.129 111.813L248.017 113.174L246.165 115.008L248.747 114.709L248.575 117.139L246.013 116.409L247.581 118.542L245.468 119.547L244.784 116.993L243.761 119.452L241.714 118.034L243.565 116.2L241.018 116.526L241.163 114.176L243.788 114.854L242.185 112.693L244.334 111.671L244.998 114.278L246.129 111.813Z" fill="#17313B"/>
<path d="M276.344 114.572L271.825 110.548L271.052 110.821L272.818 115.819L269.594 116.958L264.915 103.721L270.327 101.808C271.37 101.439 272.321 101.308 273.179 101.415C274.05 101.517 274.78 101.825 275.372 102.337C275.958 102.837 276.389 103.476 276.665 104.256C276.976 105.136 277.002 106.01 276.744 106.879C276.498 107.744 275.942 108.492 275.076 109.123L279.984 113.286L276.344 114.572ZM270.246 108.54L272.244 107.833C272.835 107.624 273.224 107.324 273.411 106.933C273.611 106.537 273.617 106.075 273.43 105.547C273.253 105.045 272.962 104.702 272.558 104.519C272.167 104.332 271.676 104.343 271.085 104.552L269.086 105.259L270.246 108.54Z" fill="#17313B"/>
<path d="M287.783 99.1252L288.55 101.86L292.96 100.624L293.672 103.166L289.262 104.402L290.094 107.367L295.081 105.969L295.821 108.608L287.54 110.929L283.751 97.41L292.031 95.0887L292.771 97.727L287.783 99.1252Z" fill="#17313B"/>
<path d="M308.919 91.1922L309.497 93.8705L303.906 95.0772L304.531 97.9706L308.714 97.0677L309.275 99.6678L305.092 100.571L306.29 106.123L302.947 106.844L299.985 93.1203L308.919 91.1922Z" fill="#17313B"/>
<path d="M325.647 102.633L321.986 97.8145L321.175 97.9339L321.947 103.177L318.563 103.675L316.519 89.785L322.198 88.9492C323.293 88.7881 324.251 88.8425 325.072 89.1125C325.907 89.3805 326.565 89.8227 327.046 90.4392C327.526 91.0425 327.826 91.753 327.946 92.5709C328.082 93.4943 327.94 94.3575 327.519 95.1607C327.111 95.9619 326.422 96.589 325.451 97.0419L329.466 102.071L325.647 102.633ZM320.823 95.5397L322.92 95.231C323.54 95.1398 323.98 94.9201 324.238 94.5721C324.51 94.2221 324.605 93.7701 324.524 93.2161C324.446 92.6884 324.227 92.2962 323.866 92.0394C323.518 91.7806 323.033 91.6969 322.413 91.7881L320.316 92.0968L320.823 95.5397Z" fill="#17313B"/>
<path d="M339.845 89.6755L340.071 92.5065L344.636 92.142L344.846 94.7736L340.281 95.1381L340.526 98.2084L345.689 97.7961L345.907 100.527L337.335 101.212L336.217 87.2164L344.79 86.5319L345.008 89.2632L339.845 89.6755Z" fill="#17313B"/>
<path d="M358.317 100.213C357.29 100.229 356.368 100.076 355.55 99.755C354.731 99.434 354.071 98.9507 353.568 98.3049C353.078 97.6589 352.813 96.8761 352.772 95.9566L356.411 95.9015C356.473 96.4207 356.659 96.8179 356.97 97.0932C357.28 97.3552 357.682 97.4825 358.176 97.475C358.682 97.4674 359.08 97.348 359.37 97.1169C359.66 96.8725 359.802 96.5436 359.795 96.1304C359.79 95.7837 359.666 95.4989 359.422 95.2759C359.192 95.0527 358.903 94.8704 358.554 94.729C358.218 94.5874 357.736 94.428 357.107 94.2508C356.196 93.9846 355.452 93.7158 354.874 93.4445C354.297 93.1732 353.797 92.7674 353.376 92.2271C352.954 91.6867 352.737 90.9766 352.723 90.0967C352.703 88.7902 353.161 87.7631 354.097 87.0156C355.032 86.2546 356.26 85.8627 357.779 85.8397C359.326 85.8163 360.578 86.1707 361.536 86.9029C362.494 87.6219 363.016 88.6407 363.102 89.9596L359.403 90.0156C359.369 89.5627 359.197 89.2119 358.887 88.9633C358.576 88.7013 358.181 88.5739 357.701 88.5812C357.288 88.5874 356.956 88.7058 356.706 88.9363C356.456 89.1534 356.334 89.4686 356.34 89.8819C356.347 90.3352 356.566 90.6853 356.996 90.9321C357.427 91.179 358.098 91.4422 359.009 91.7218C359.92 92.0147 360.657 92.2969 361.222 92.5684C361.799 92.8396 362.299 93.2388 362.72 93.7658C363.141 94.2928 363.358 94.9763 363.371 95.8162C363.383 96.6161 363.187 97.3458 362.784 98.0053C362.394 98.6646 361.815 99.1935 361.048 99.5918C360.28 99.9901 359.37 100.197 358.317 100.213Z" fill="#17313B"/>
<path d="M384.104 86.7856L383.305 100.803L379.89 100.608L380.219 94.8374L374.908 94.5343L374.579 100.305L371.164 100.11L371.964 86.0929L375.379 86.2877L375.065 91.7788L380.377 92.0819L380.69 86.5908L384.104 86.7856Z" fill="#17313B"/>
<path d="M396.067 88.0454L394.444 101.991L391.047 101.596L392.67 87.6501L396.067 88.0454Z" fill="#17313B"/>
<path d="M414.272 105.14L410.906 104.539L406.796 95.0093L405.275 103.535L401.908 102.934L404.374 89.1122L407.741 89.7129L411.844 99.2825L413.372 90.7178L416.739 91.3186L414.272 105.14Z" fill="#17313B"/>
<path d="M433.899 99.9758C433.772 99.4601 433.507 99.0254 433.104 98.6715C432.717 98.3081 432.213 98.0453 431.594 97.8831C430.524 97.6025 429.573 97.7324 428.742 98.2728C427.915 98.8003 427.347 99.6508 427.04 100.825C426.712 102.076 426.79 103.144 427.275 104.029C427.776 104.905 428.62 105.498 429.807 105.809C430.619 106.022 431.357 105.995 432.02 105.727C432.695 105.463 433.263 104.978 433.724 104.272L429.526 103.172L430.165 100.734L437.362 102.62L436.556 105.696C436.094 106.457 435.474 107.115 434.695 107.669C433.928 108.226 433.036 108.606 432.019 108.808C431.001 109.009 429.924 108.962 428.789 108.664C427.448 108.313 426.325 107.708 425.419 106.851C424.53 105.983 423.926 104.95 423.606 103.75C423.299 102.553 423.322 101.284 423.673 99.9423C424.025 98.6009 424.628 97.484 425.482 96.5913C426.353 95.6892 427.386 95.0849 428.583 94.7783C429.783 94.4588 431.054 94.4748 432.395 94.8263C434.021 95.2522 435.285 96.0039 436.188 97.0814C437.103 98.1622 437.559 99.4464 437.556 100.934L433.899 99.9758Z" fill="#17313B"/>
<path d="M482.653 113.636L482.796 115.959L480.204 115.688L482.072 117.496L480.082 118.902L479.023 116.458L478.367 119.023L476.251 118.025L477.793 115.878L475.243 116.644L475.043 114.161L477.634 114.432L475.768 112.668L477.678 111.291L478.817 113.752L479.473 111.142L481.626 112.157L480.03 114.323L482.653 113.636Z" fill="#17313B"/>
<path d="M514.463 148.718C513.627 148.123 512.974 147.453 512.505 146.71C512.036 145.966 511.79 145.186 511.767 144.367C511.755 143.557 512.005 142.769 512.517 142.004L515.482 144.116C515.224 144.57 515.138 145 515.226 145.406C515.321 145.801 515.569 146.142 515.971 146.428C516.384 146.722 516.775 146.862 517.146 146.847C517.524 146.822 517.833 146.641 518.073 146.305C518.274 146.022 518.342 145.719 518.278 145.395C518.225 145.079 518.1 144.761 517.903 144.44C517.716 144.127 517.422 143.713 517.02 143.197C516.444 142.443 516.004 141.786 515.699 141.225C515.394 140.665 515.232 140.042 515.213 139.357C515.193 138.672 515.439 137.971 515.949 137.254C516.707 136.19 517.685 135.634 518.881 135.585C520.085 135.526 521.307 135.938 522.545 136.82C523.804 137.717 524.603 138.744 524.941 139.901C525.287 141.048 525.104 142.178 524.392 143.292L521.379 141.146C521.62 140.761 521.689 140.376 521.586 139.992C521.491 139.597 521.248 139.26 520.857 138.982C520.521 138.742 520.183 138.641 519.846 138.679C519.515 138.705 519.23 138.887 518.991 139.224C518.728 139.593 518.697 140.005 518.897 140.458C519.098 140.912 519.482 141.522 520.05 142.287C520.611 143.062 521.038 143.727 521.332 144.28C521.636 144.84 521.802 145.458 521.83 146.132C521.857 146.806 521.627 147.485 521.14 148.17C520.675 148.821 520.086 149.293 519.37 149.586C518.665 149.886 517.886 149.969 517.031 149.835C516.177 149.702 515.321 149.329 514.463 148.718Z" fill="#17313B"/>
<path d="M539.174 155.693C538.658 156.322 538.04 156.781 537.321 157.07C536.609 157.348 535.823 157.402 534.963 157.231C534.103 157.06 533.23 156.611 532.344 155.883L530.705 154.538L527.508 158.434L524.864 156.265L533.771 145.412L538.053 148.926C538.919 149.637 539.528 150.387 539.881 151.176C540.233 151.966 540.343 152.746 540.211 153.517C540.078 154.288 539.733 155.013 539.174 155.693ZM533.868 153.616C534.373 154.03 534.847 154.22 535.289 154.186C535.731 154.152 536.129 153.919 536.484 153.486C536.84 153.053 536.991 152.616 536.938 152.176C536.885 151.736 536.606 151.309 536.101 150.895L534.663 149.715L532.43 152.436L533.868 153.616Z" fill="#17313B"/>
<path d="M546.622 172.035L542.822 168.428L540.505 169.648L537.908 167.183L551.259 160.498L554.131 163.224L548.149 176.904L545.524 174.412L546.622 172.035ZM547.801 169.515L550.078 164.589L545.292 167.132L547.801 169.515Z" fill="#17313B"/>
<path d="M557.639 187.045L559.599 181.32L559.048 180.713L555.125 184.277L552.825 181.745L563.218 172.305L567.077 176.554C567.821 177.373 568.31 178.199 568.544 179.031C568.786 179.874 568.786 180.666 568.543 181.41C568.309 182.144 567.887 182.789 567.275 183.345C566.584 183.973 565.788 184.336 564.886 184.434C563.994 184.542 563.089 184.319 562.172 183.766L560.235 189.902L557.639 187.045ZM560.839 179.086L562.264 180.655C562.686 181.119 563.113 181.362 563.546 181.382C563.988 181.413 564.417 181.24 564.831 180.864C565.226 180.505 565.429 180.104 565.441 179.661C565.462 179.228 565.262 178.779 564.84 178.315L563.415 176.746L560.839 179.086Z" fill="#17313B"/>
<path d="M570.377 202.339L572.341 194.799L567.464 198.626L565.353 195.935L576.398 187.268L578.51 189.959L573.663 193.762L581.398 193.641L583.88 196.804L575.109 196.771L572.957 205.628L570.377 202.339Z" fill="#17313B"/>
<path d="M580.911 212.346L583.443 216.042L581.265 217.534L576.8 211.017L588.382 203.081L590.315 205.902L580.911 212.346Z" fill="#17313B"/>
<path d="M598.807 219.037L586.848 226.392L585.056 223.479L597.016 216.124L598.807 219.037Z" fill="#17313B"/>
<path d="M596.644 243.916L595.033 240.9L599.976 231.774L592.337 235.854L590.726 232.838L603.11 226.222L604.721 229.239L599.743 238.383L607.416 234.284L609.028 237.301L596.644 243.916Z" fill="#17313B"/>
<path d="M612.846 256.138C613.173 255.719 613.351 255.242 613.379 254.706C613.425 254.177 613.32 253.619 613.064 253.032C612.622 252.018 611.932 251.351 610.993 251.033C610.067 250.709 609.047 250.79 607.935 251.275C606.749 251.791 605.959 252.514 605.564 253.442C605.186 254.378 605.242 255.408 605.732 256.532C606.067 257.302 606.545 257.865 607.165 258.22C607.791 258.588 608.524 258.734 609.364 258.659L607.63 254.68L609.94 253.673L612.912 260.494L609.997 261.764C609.113 261.873 608.213 261.792 607.296 261.523C606.384 261.266 605.534 260.8 604.745 260.126C603.957 259.451 603.328 258.576 602.859 257.5C602.306 256.229 602.085 254.972 602.199 253.73C602.329 252.495 602.767 251.381 603.513 250.387C604.263 249.406 605.274 248.638 606.545 248.084C607.816 247.53 609.067 247.313 610.297 247.431C611.544 247.557 612.658 247.995 613.64 248.745C614.633 249.49 615.407 250.499 615.961 251.77C616.632 253.31 616.824 254.768 616.536 256.144C616.254 257.532 615.527 258.685 614.356 259.603L612.846 256.138Z" fill="#17313B"/>
<path d="M629.83 292.69L628.154 294.305L626.681 292.156L626.514 294.75L624.153 294.146L625.329 291.756L622.95 292.918L622.338 290.66L624.973 290.443L622.737 288.998L624.497 287.236L625.971 289.385L626.105 286.821L628.391 287.382L627.256 289.845L629.668 288.652L630.291 290.949L627.607 291.138L629.83 292.69Z" fill="#17313B"/>
<path d="M638.224 342.425L635.495 342.671L634.981 336.975L632.033 337.241L632.418 341.504L629.768 341.743L629.383 337.48L623.726 337.991L623.419 334.585L637.402 333.322L638.224 342.425Z" fill="#17313B"/>
<path d="M638.762 353.361L624.733 353.906L624.6 350.489L638.629 349.943L638.762 353.361Z" fill="#17313B"/>
<path d="M627.655 365.112L627.569 371.151L624.769 371.111L624.911 361.192L627.511 361.229L636.064 367.352L636.15 361.353L638.949 361.393L638.808 371.312L636.208 371.275L627.655 365.112Z" fill="#17313B"/>
<path d="M626.93 382.21L626.455 388.231L623.663 388.01L624.445 378.121L627.037 378.326L635.177 384.988L635.65 379.006L638.441 379.227L637.66 389.116L635.068 388.911L626.93 382.21Z" fill="#17313B"/>
<path d="M636.284 400.467L622.366 398.619L622.816 395.229L636.734 397.077L636.284 400.467Z" fill="#17313B"/>
<path d="M618.897 418.393L619.552 415.036L629.147 411.081L620.648 409.422L621.303 406.066L635.083 408.755L634.428 412.112L624.793 416.059L633.332 417.726L632.677 421.082L618.897 418.393Z" fill="#17313B"/>
<path d="M623.744 438.101C624.262 437.983 624.701 437.725 625.061 437.327C625.431 436.946 625.701 436.447 625.874 435.831C626.171 434.765 626.057 433.812 625.53 432.973C625.016 432.137 624.175 431.556 623.006 431.229C621.76 430.881 620.691 430.942 619.798 431.413C618.915 431.9 618.308 432.734 617.978 433.915C617.752 434.724 617.767 435.462 618.024 436.129C618.277 436.809 618.753 437.385 619.451 437.857L620.619 433.677L623.046 434.355L621.044 441.521L617.982 440.665C617.228 440.191 616.58 439.561 616.039 438.773C615.494 437.997 615.129 437.099 614.944 436.078C614.758 435.058 614.823 433.982 615.139 432.852C615.512 431.517 616.135 430.403 617.007 429.511C617.888 428.636 618.932 428.049 620.137 427.749C621.338 427.461 622.607 427.504 623.943 427.878C625.278 428.251 626.385 428.871 627.264 429.74C628.152 430.625 628.739 431.668 629.027 432.87C629.327 434.075 629.29 435.345 628.917 436.681C628.465 438.299 627.693 439.551 626.601 440.436C625.506 441.335 624.214 441.77 622.727 441.742L623.744 438.101Z" fill="#17313B"/>
<path d="M613.834 477.169L611.515 477.363L611.73 474.766L609.962 476.672L608.513 474.714L610.934 473.602L608.355 473.002L609.306 470.864L611.487 472.36L610.665 469.827L613.143 469.572L612.929 472.169L614.652 470.265L616.07 472.144L613.635 473.337L616.258 473.935L615.291 476.11L613.09 474.562L613.834 477.169Z" fill="#17313B"/>
<path d="M583.902 503.23L589.944 503.577L590.38 502.883L585.892 500.063L587.712 497.168L599.6 504.637L596.546 509.497C595.957 510.435 595.293 511.128 594.555 511.577C593.809 512.037 593.045 512.25 592.263 512.216C591.493 512.188 590.758 511.955 590.058 511.515C589.268 511.018 588.704 510.349 588.367 509.508C588.023 508.677 587.994 507.746 588.28 506.713L581.849 506.499L583.902 503.23ZM592.429 504.171L591.301 505.966C590.968 506.496 590.849 506.973 590.946 507.396C591.035 507.83 591.317 508.196 591.791 508.494C592.243 508.778 592.683 508.866 593.113 508.758C593.536 508.661 593.914 508.348 594.248 507.817L595.376 506.022L592.429 504.171Z" fill="#17313B"/>
<path d="M584.53 522.441L582.231 520.773L579.543 524.481L577.405 522.931L580.094 519.223L577.601 517.415L574.56 521.609L572.342 520L577.39 513.038L588.756 521.28L583.708 528.243L581.489 526.634L584.53 522.441Z" fill="#17313B"/>
<path d="M572.891 541.785L570.774 540.045L574.407 535.627L572.121 533.747L569.403 537.053L567.348 535.363L570.066 532.057L565.679 528.45L567.851 525.808L578.696 534.725L572.891 541.785Z" fill="#17313B"/>
<path d="M552.675 543.206L558.537 544.709L559.098 544.112L555.237 540.482L557.58 537.99L567.808 547.607L563.877 551.789C563.118 552.596 562.334 553.148 561.522 553.446C560.702 553.755 559.911 553.817 559.151 553.633C558.4 553.458 557.724 553.087 557.122 552.521C556.442 551.881 556.017 551.116 555.848 550.225C555.67 549.344 555.821 548.425 556.301 547.467L550.031 546.018L552.675 543.206ZM560.861 545.77L559.409 547.314C558.98 547.771 558.772 548.216 558.785 548.649C558.79 549.093 558.996 549.506 559.404 549.89C559.792 550.255 560.208 550.426 560.65 550.403C561.084 550.39 561.515 550.155 561.944 549.698L563.397 548.154L560.861 545.77Z" fill="#17313B"/>
<path d="M549.594 562.179L547.659 560.101L544.307 563.222L542.508 561.29L545.86 558.168L543.761 555.914L539.97 559.444L538.103 557.439L544.397 551.578L553.965 561.854L547.67 567.714L545.803 565.709L549.594 562.179Z" fill="#17313B"/>
<path d="M528.572 565.392C529.367 564.743 530.184 564.289 531.025 564.033C531.866 563.776 532.684 563.745 533.479 563.938C534.264 564.141 534.958 564.589 535.561 565.285L532.743 567.588C532.373 567.219 531.98 567.024 531.565 567.001C531.159 566.989 530.765 567.138 530.383 567.451C529.991 567.771 529.753 568.112 529.669 568.473C529.594 568.845 529.687 569.19 529.949 569.511C530.168 569.779 530.442 569.925 530.772 569.949C531.091 569.981 531.431 569.944 531.792 569.838C532.143 569.741 532.62 569.566 533.223 569.314C534.102 568.957 534.853 568.705 535.474 568.559C536.095 568.413 536.738 568.421 537.404 568.583C538.07 568.745 538.682 569.166 539.239 569.848C540.066 570.859 540.345 571.949 540.076 573.115C539.815 574.293 539.096 575.362 537.92 576.324C536.722 577.303 535.52 577.803 534.315 577.824C533.118 577.855 532.076 577.381 531.189 576.401L534.054 574.059C534.361 574.393 534.714 574.562 535.112 574.564C535.518 574.576 535.907 574.43 536.279 574.127C536.599 573.865 536.785 573.566 536.838 573.231C536.899 572.905 536.799 572.582 536.537 572.262C536.25 571.911 535.861 571.773 535.371 571.846C534.88 571.92 534.191 572.131 533.303 572.477C532.407 572.814 531.654 573.051 531.043 573.188C530.422 573.334 529.782 573.331 529.125 573.18C528.467 573.029 527.873 572.628 527.341 571.977C526.835 571.358 526.535 570.664 526.442 569.897C526.338 569.138 526.463 568.364 526.817 567.575C527.171 566.787 527.756 566.059 528.572 565.392Z" fill="#17313B"/>
<path d="M516.699 591.932L508.621 580.449L511.418 578.481L514.744 583.208L519.095 580.147L515.769 575.42L518.566 573.452L526.645 584.935L523.847 586.903L520.683 582.404L516.332 585.465L519.496 589.964L516.699 591.932Z" fill="#17313B"/>
<path d="M506.541 598.374L499.152 586.436L502.06 584.636L509.449 596.574L506.541 598.374Z" fill="#17313B"/>
<path d="M481.656 596.281L484.668 594.661L493.807 599.578L489.705 591.951L492.717 590.331L499.368 602.696L496.356 604.316L487.197 599.364L491.318 607.026L488.306 608.646L481.656 596.281Z" fill="#17313B"/>
<path d="M469.479 612.518C469.899 612.843 470.377 613.019 470.913 613.046C471.442 613.091 472 612.984 472.586 612.727C473.599 612.282 474.263 611.59 474.579 610.65C474.9 609.723 474.816 608.704 474.328 607.593C473.809 606.409 473.084 605.62 472.154 605.227C471.218 604.852 470.188 604.911 469.065 605.405C468.295 605.742 467.734 606.222 467.381 606.843C467.015 607.469 466.871 608.203 466.948 609.042L470.922 607.297L471.935 609.605L465.123 612.596L463.845 609.684C463.734 608.801 463.811 607.9 464.078 606.982C464.333 606.07 464.796 605.218 465.468 604.428C466.141 603.638 467.014 603.007 468.088 602.535C469.358 601.977 470.614 601.753 471.856 601.863C473.092 601.991 474.207 602.425 475.203 603.168C476.187 603.915 476.957 604.924 477.515 606.194C478.072 607.463 478.294 608.713 478.178 609.943C478.056 611.191 477.622 612.307 476.874 613.29C476.132 614.286 475.126 615.063 473.856 615.62C472.318 616.296 470.86 616.491 469.483 616.208C468.094 615.929 466.939 615.206 466.018 614.038L469.479 612.518Z" fill="#17313B"/>
<path d="M422.784 632.089L421.229 630.358L423.429 628.96L420.842 628.702L421.528 626.365L423.876 627.624L422.798 625.206L425.076 624.673L425.201 627.314L426.724 625.13L428.423 626.951L426.223 628.348L428.781 628.572L428.14 630.838L425.718 629.617L426.826 632.069L424.508 632.611L424.414 629.922L422.784 632.089Z" fill="#17313B"/>
<path d="M385.996 623.643C387.018 623.552 387.949 623.636 388.789 623.895C389.629 624.155 390.324 624.588 390.873 625.195C391.409 625.803 391.732 626.564 391.84 627.478L388.215 627.802C388.115 627.289 387.9 626.906 387.57 626.655C387.241 626.416 386.831 626.319 386.339 626.363C385.835 626.408 385.446 626.557 385.174 626.809C384.903 627.074 384.786 627.412 384.823 627.824C384.854 628.169 384.999 628.444 385.258 628.648C385.504 628.854 385.806 629.014 386.165 629.13C386.51 629.246 387.003 629.369 387.644 629.499C388.572 629.698 389.334 629.911 389.93 630.138C390.526 630.366 391.054 630.734 391.514 631.242C391.974 631.749 392.244 632.442 392.322 633.318C392.438 634.62 392.058 635.678 391.18 636.492C390.304 637.32 389.109 637.802 387.595 637.937C386.054 638.075 384.779 637.814 383.77 637.155C382.762 636.509 382.166 635.531 381.982 634.222L385.667 633.893C385.734 634.342 385.931 634.679 386.259 634.904C386.588 635.142 386.992 635.24 387.47 635.198C387.882 635.161 388.204 635.018 388.436 634.77C388.669 634.535 388.768 634.211 388.731 633.8C388.69 633.348 388.446 633.015 387.999 632.801C387.551 632.587 386.863 632.374 385.934 632.162C385.004 631.938 384.247 631.711 383.664 631.482C383.068 631.254 382.541 630.893 382.082 630.398C381.622 629.904 381.355 629.238 381.281 628.402C381.209 627.605 381.351 626.863 381.704 626.175C382.044 625.489 382.582 624.919 383.318 624.465C384.054 624.011 384.946 623.737 385.996 623.643Z" fill="#17313B"/>
<path d="M362.687 634.415C362.67 633.602 362.841 632.851 363.2 632.164C363.559 631.489 364.121 630.937 364.886 630.508C365.65 630.079 366.606 629.852 367.752 629.828L369.872 629.784L369.767 624.745L373.186 624.674L373.478 638.711L367.94 638.826C366.82 638.85 365.869 638.676 365.088 638.306C364.307 637.935 363.716 637.414 363.315 636.742C362.914 636.07 362.705 635.295 362.687 634.415ZM368.069 632.542C367.416 632.556 366.932 632.719 366.619 633.033C366.305 633.346 366.154 633.782 366.166 634.342C366.178 634.902 366.347 635.332 366.673 635.632C366.999 635.932 367.489 636.075 368.142 636.062L370.002 636.023L369.928 632.504L368.069 632.542Z" fill="#17313B"/>
<path d="M346.402 626.845L351.635 627.114L352.601 624.68L356.177 624.864L350.383 638.625L346.428 638.421L342.075 624.139L345.69 624.325L346.402 626.845ZM347.146 629.526L348.62 634.749L350.601 629.704L347.146 629.526Z" fill="#17313B"/>
<path d="M328.271 622.606L330.506 628.23L331.319 628.332L331.982 623.074L335.375 623.501L333.62 637.431L327.925 636.714C326.827 636.575 325.918 636.266 325.2 635.786C324.467 635.304 323.952 634.701 323.653 633.978C323.353 633.268 323.255 632.503 323.358 631.683C323.475 630.757 323.843 629.964 324.464 629.303C325.072 628.64 325.904 628.221 326.961 628.045L324.442 622.124L328.271 622.606ZM331.017 630.733L328.914 630.468C328.292 630.39 327.81 630.484 327.467 630.75C327.111 631.014 326.898 631.424 326.828 631.979C326.762 632.509 326.868 632.945 327.147 633.29C327.413 633.632 327.857 633.843 328.478 633.921L330.582 634.186L331.017 630.733Z" fill="#17313B"/>
<path d="M308.649 619.274L312.06 626.279L313.277 620.2L316.63 620.871L313.876 634.638L310.522 633.967L311.731 627.927L305.933 633.049L301.991 632.26L308.675 626.581L304.55 618.454L308.649 619.274Z" fill="#17313B"/>
<path d="M294.139 618.522L289.812 617.361L290.496 614.812L298.126 616.858L294.489 630.419L291.186 629.533L294.139 618.522Z" fill="#17313B"/>
<path d="M276.192 625.079L280.494 611.714L283.749 612.762L279.448 626.126L276.192 625.079Z" fill="#17313B"/>
<path d="M261.656 604.772L264.842 606.016L267.022 616.163L270.17 608.096L273.356 609.339L268.251 622.418L265.065 621.175L262.9 610.99L259.737 619.095L256.551 617.851L261.656 604.772Z" fill="#17313B"/>
<path d="M173.532 564.298L175.368 562.265L179.613 566.099L181.597 563.903L178.421 561.034L180.204 559.06L183.38 561.929L187.188 557.714L189.726 560.007L180.314 570.425L173.532 564.298Z" fill="#17313B"/>
<path d="M96.5278 286.952L110.057 290.705L109.143 294L95.6136 290.248L96.5278 286.952Z" fill="#17313B"/>
</svg>
