<svg width="201" height="58" viewBox="0 0 201 58" fill="none" xmlns="http://www.w3.org/2000/svg">
<path d="M0 0C0 0 16.706 0 22.647 8.912C28.588 17.824 31.559 20.794 37.5 11.882C43.441 2.97 44.651 2.971 57.413 2.971C70.175 2.971 76.113 11.882 76.113 23.765C76.113 35.648 70.3 42.216 73.267 51.127C76.234 60.038 85.149 60.039 85.149 48.157C85.149 36.275 82.059 32.676 82.059 23.765C82.059 14.854 84.526 2.971 93.689 2.971C102.852 2.971 117.705 11.882 129.589 11.882C141.473 11.882 144.442 2.971 162.265 2.971C180.088 2.971 180.089 20.794 186.03 20.794C191.971 20.794 195.059 0 201 0H0Z" fill="#4E2E85"/>
</svg>
